<?xml version="1.0" encoding="UTF-8"?>
<svg id="_레이어_2" data-name="레이어_2" xmlns="http://www.w3.org/2000/svg" viewBox="0 0 332.89 330">
  <defs>
    <style>
      .cls-1 {
        fill: #3a525e;
      }

      .cls-1, .cls-2, .cls-3 {
        fill-rule: evenodd;
      }

      .cls-4 {
        fill: #f0c95d;
      }

      .cls-5 {
        fill: #3d4454;
      }

      .cls-2 {
        fill: #e4e9f3;
      }

      .cls-3, .cls-6 {
        fill: #2d3133;
      }
    </style>
  </defs>
  <g id="Layer_1">
    <g>
      <g>
        <path class="cls-2" d="M5,22.42h252.06v302.58H5V22.42Z"/>
        <rect class="cls-5" x="78.73" y="5" width="104.6" height="37.4"/>
        <rect class="cls-4" x="168.52" y="130.36" width="185.96" height="46.01" transform="translate(-2.07 303.15) rotate(-60)"/>
        <polygon class="cls-3" points="195.08 268.4 234.93 245.4 195.08 222.39 195.08 268.4"/>
        <rect class="cls-6" x="283.3" y="64.09" width="32.91" height="46.01" transform="translate(74.45 303.15) rotate(-60)"/>
      </g>
      <path class="cls-1" d="M188.33,17.42h68.73c2.76,0,5,2.24,5,5v73.99l21.69-37.57c1.38-2.38,4.43-3.2,6.82-1.82l39.83,23.01c2.38,1.37,3.2,4.41,1.84,6.8l-70.17,121.55v116.62c0,2.76-2.24,5-5,5H5c-2.76,0-5-2.24-5-5V22.42c0-2.76,2.24-5,5-5h68.73V5c0-2.76,2.24-5,5-5h104.6c2.76,0,5,2.24,5,5v12.42h0ZM304.64,114.67l-31.21-18.02-71.55,123.92,31.21,18.02,71.55-123.92h0ZM278.41,88.03l31.21,18.02,11.48-19.88-31.21-18.02-11.48,19.88h0ZM200.08,259.76l24.88-14.37-24.88-14.37v28.73h0ZM237.43,249.71l-39.56,22.84c-.8.54-1.76.85-2.79.85-2.76,0-5-2.24-5-5v-46.01h.02c0-.84.21-1.7.66-2.48v-.02s0,0,0,0l61.29-106.16V27.42h-63.73v14.99c0,2.76-2.24,5-5,5h-104.6c-2.76,0-5-2.24-5-5v-14.99H10v292.58h242.06v-94.3l-12.81,22.19h0c-.42.73-1.03,1.36-1.82,1.82h0ZM132.09,241.9h36.35c2.76,0,5-2.24,5-5s-2.24-5-5-5h-36.35c-2.76,0-5,2.24-5,5s2.24,5,5,5h0ZM132.09,272.45h36.35c2.76,0,5-2.24,5-5s-2.24-5-5-5h-36.35c-2.76,0-5,2.24-5,5s2.24,5,5,5h0ZM132.09,167.36h66.44c2.76,0,5-2.24,5-5s-2.24-5-5-5h-66.44c-2.76,0-5,2.24-5,5s2.24,5,5,5h0ZM132.09,197.91h49.58c2.76,0,5-2.24,5-5s-2.24-5-5-5h-49.58c-2.76,0-5,2.24-5,5s2.24,5,5,5h0ZM39.8,253.96l19.53,21.75c1.84,2.05,5,2.21,7.05.37.23-.21.43-.43.62-.66l34.46-40.2c1.79-2.09,1.54-5.24-.55-7.03-2.09-1.79-5.24-1.54-7.03.55l-30.92,36.07-15.74-17.52c-1.84-2.05-5-2.21-7.05-.37-2.05,1.84-2.21,5-.37,7.05h0ZM39.8,179.42l19.53,21.75c1.84,2.05,5,2.21,7.05.37.23-.21.43-.43.62-.66l34.46-40.2c1.79-2.09,1.54-5.24-.55-7.03-2.09-1.79-5.24-1.54-7.03.55l-30.92,36.07-15.74-17.52c-1.84-2.05-5-2.21-7.05-.37-2.05,1.84-2.21,5-.37,7.05h0ZM39.8,104.88l19.53,21.75c1.84,2.05,5,2.21,7.05.37.23-.21.43-.43.62-.66l34.46-40.2c1.79-2.09,1.54-5.24-.55-7.03-2.09-1.79-5.24-1.55-7.03.55l-30.92,36.07-15.74-17.52c-1.84-2.05-5-2.21-7.05-.37-2.05,1.84-2.21,5-.37,7.05h0ZM132.09,91.18h79.09c2.76,0,5-2.24,5-5s-2.24-5-5-5h-79.09c-2.76,0-5,2.24-5,5s2.24,5,5,5h0ZM132.09,121.72h79.09c2.76,0,5-2.24,5-5s-2.24-5-5-5h-79.09c-2.76,0-5,2.24-5,5s2.24,5,5,5h0ZM178.33,10h-94.6v27.41h94.6V10Z"/>
    </g>
  </g>
</svg>