<?xml version="1.0" encoding="UTF-8"?>
<svg id="_레이어_2" data-name="레이어_2" xmlns="http://www.w3.org/2000/svg" viewBox="0 0 316.6 310">
  <defs>
    <style>
      .cls-1 {
        fill: #3a525e;
      }

      .cls-1, .cls-2, .cls-3 {
        fill-rule: evenodd;
      }

      .cls-2 {
        fill: #52add5;
      }

      .cls-4 {
        fill: #3d4454;
      }

      .cls-3 {
        fill: #e4e9f3;
      }
    </style>
  </defs>
  <g id="Layer_1">
    <g>
      <g>
        <polygon class="cls-3" points="122.05 23.97 239.11 23.97 239.11 305 5 305 5 23.97 122.05 23.97"/>
        <rect class="cls-4" x="71.7" y="5" width="100.71" height="40.32"/>
        <path class="cls-2" d="M239.11,247.18c39.93,0,72.49-32.56,72.49-72.49s-32.56-72.49-72.49-72.49-72.49,32.56-72.49,72.49,32.56,72.49,72.49,72.49Z"/>
      </g>
      <path class="cls-1" d="M48.73,95.84c-2.86,0-5.18-2.32-5.18-5.19s2.32-5.19,5.18-5.19h146.74c2.86,0,5.18,2.32,5.18,5.19s-2.32,5.19-5.18,5.19H48.73ZM195.87,175.76c-1.84-2.05-1.68-5.21.37-7.05,2.05-1.84,5.21-1.68,7.05.37l24.72,27.53,46.84-54.65c1.79-2.09,4.94-2.34,7.03-.55,2.09,1.79,2.34,4.94.55,7.03l-50.38,58.78c-.18.23-.39.46-.62.66-2.05,1.84-5.21,1.68-7.05-.37l-28.51-31.75h0ZM244.11,97.36V23.97c0-2.76-2.24-5-5-5h-61.7V5c0-2.76-2.24-5-5-5h-100.71c-2.76,0-5,2.24-5,5v13.97H5c-2.76,0-5,2.24-5,5v281.03c0,2.76,2.24,5,5,5h234.11c2.76,0,5-2.24,5-5v-52.98c19.41-1.24,36.87-9.62,49.79-22.54,14.02-14.02,22.7-33.4,22.7-54.79s-8.67-40.77-22.7-54.79c-12.92-12.92-30.39-21.3-49.79-22.54h0ZM234.11,252.02c-19.41-1.24-36.87-9.62-49.79-22.54-14.02-14.02-22.7-33.4-22.7-54.79s8.68-40.77,22.7-54.79c12.92-12.92,30.39-21.3,49.79-22.54V28.97h-56.7v16.35c0,2.76-2.24,5-5,5h-100.71c-2.76,0-5-2.24-5-5v-16.35H10v271.03h224.11v-47.98h0ZM286.83,126.97c-12.21-12.21-29.09-19.77-47.72-19.77s-35.51,7.55-47.72,19.77c-12.21,12.21-19.77,29.09-19.77,47.72s7.55,35.51,19.77,47.72c12.21,12.21,29.09,19.77,47.72,19.77s35.51-7.56,47.72-19.77c12.21-12.21,19.77-29.09,19.77-47.72s-7.56-35.51-19.77-47.72h0ZM167.41,10v30.32h-90.71V10h90.71ZM48.73,263.87c-2.86,0-5.18-2.32-5.18-5.18s2.32-5.18,5.18-5.18h146.74c2.86,0,5.18,2.32,5.18,5.18s-2.32,5.18-5.18,5.18H48.73ZM48.73,221.86c-2.86,0-5.18-2.32-5.18-5.19s2.32-5.18,5.18-5.18h96.8c2.86,0,5.18,2.32,5.18,5.18s-2.32,5.19-5.18,5.19H48.73ZM48.73,179.85c-2.86,0-5.18-2.32-5.18-5.18s2.32-5.19,5.18-5.19h96.8c2.86,0,5.18,2.32,5.18,5.19s-2.32,5.18-5.18,5.18H48.73ZM48.73,137.84c-2.86,0-5.18-2.32-5.18-5.18s2.32-5.19,5.18-5.19h96.8c2.86,0,5.18,2.32,5.18,5.19s-2.32,5.18-5.18,5.18H48.73Z"/>
    </g>
  </g>
</svg>