<?xml version="1.0" encoding="UTF-8"?>
<svg id="_레이어_2" data-name="레이어_2" xmlns="http://www.w3.org/2000/svg" viewBox="0 0 371.73 330">
  <defs>
    <style>
      .cls-1 {
        fill: #52add5;
      }

      .cls-2 {
        fill: #3a525e;
      }

      .cls-2, .cls-3, .cls-4, .cls-5 {
        fill-rule: evenodd;
      }

      .cls-6 {
        fill: #f0c95d;
      }

      .cls-3 {
        fill: #e4e9f3;
      }

      .cls-4 {
        fill: #3d4454;
      }

      .cls-7 {
        fill: #73b95f;
      }

      .cls-8 {
        fill: #ffd15b;
      }

      .cls-9 {
        fill: #e15b58;
      }

      .cls-5 {
        fill: #c6dbe8;
      }
    </style>
  </defs>
  <g id="Layer_1">
    <g>
      <g>
        <path class="cls-3" d="M122.31,259.06h127.12c2.6,31.19.62,52.02,35.98,56.74,2.13.28,3.69,2.07,3.69,4.21,0,2.66-1.27,4.99-4.25,4.99H86.89c-2.34,0-4.25-1.91-4.25-4.25,0-2.47.95-4.59,3.69-4.95,35.36-4.71,33.38-25.55,35.98-56.74Z"/>
        <path class="cls-4" d="M341.4,5c6.97,0,13.3,2.85,17.89,7.44,4.59,4.59,7.44,10.93,7.44,17.89v203.41c0,6.96-2.85,13.3-7.44,17.89-4.59,4.59-10.92,7.44-17.89,7.44H30.33c-6.96,0-13.3-2.85-17.89-7.44-4.59-4.59-7.44-10.92-7.44-17.89V30.33c0-6.97,2.85-13.3,7.44-17.89s10.92-7.44,17.89-7.44h311.08Z"/>
        <path class="cls-5" d="M341.4,28.88H30.33c-.4,0-.73.17-1.01.44-.28.28-.45.61-.45,1.01v203.41c0,.4.17.72.44,1,.28.28.61.45,1.01.45h311.08c.4,0,.73-.17,1.01-.45.28-.28.45-.61.45-1V30.33c0-.4-.17-.73-.45-1.01s-.61-.44-1.01-.44Z"/>
        <rect class="cls-7" x="170.55" y="122.54" width="30.63" height="76.94"/>
        <rect class="cls-6" x="120.04" y="95.12" width="30.63" height="104.36"/>
        <rect class="cls-1" x="221.07" y="56.47" width="30.63" height="143.01"/>
        <rect class="cls-8" x="271.58" y="95.12" width="30.63" height="104.36"/>
        <rect class="cls-9" x="69.53" y="147.72" width="30.63" height="51.76"/>
      </g>
      <path class="cls-2" d="M341.4,0c4.08,0,7.99.82,11.57,2.31,3.72,1.55,7.07,3.8,9.85,6.59,2.78,2.78,5.04,6.13,6.59,9.85,1.49,3.58,2.32,7.5,2.32,11.57v203.41c0,4.07-.82,7.99-2.32,11.57-1.55,3.72-3.8,7.07-6.59,9.85s-6.13,5.04-9.85,6.59c-3.58,1.49-7.5,2.32-11.57,2.32h-86.58l.21,2.87c1.75,24.18,2.91,40.18,31.02,43.93,2.31.3,4.32,1.43,5.75,3.07,1.44,1.65,2.3,3.78,2.3,6.09,0,2.53-.74,5.01-2.36,6.91-1.61,1.89-3.89,3.07-6.89,3.07H86.89c-2.55,0-4.87-1.04-6.54-2.71l-.37-.42c-1.46-1.64-2.34-3.79-2.34-6.12s.56-4.58,1.94-6.44c1.36-1.82,3.34-3.09,6.1-3.45,28.11-3.75,29.27-19.76,31.02-43.93l.21-2.86H30.33c-4.08,0-7.99-.83-11.57-2.32-3.72-1.55-7.07-3.8-9.85-6.59-2.78-2.78-5.04-6.13-6.59-9.85-1.49-3.59-2.31-7.5-2.31-11.57V30.33c0-4.08.83-7.99,2.31-11.57,1.55-3.72,3.8-7.07,6.59-9.85,2.79-2.78,6.13-5.04,9.85-6.59,3.59-1.49,7.5-2.31,11.57-2.31h311.08ZM69.53,142.72c-2.76,0-5,2.24-5,5v51.76c0,2.76,2.24,5,5,5h30.63c2.76,0,5-2.24,5-5v-51.76c0-2.76-2.24-5-5-5h-30.63ZM95.15,152.72h-20.63v41.76h20.63v-41.76h0ZM297.21,100.12h-20.63v94.36h20.63v-94.36h0ZM271.58,90.12c-2.76,0-5,2.24-5,5v104.36c0,2.76,2.24,5,5,5h30.63c2.76,0,5-2.24,5-5v-104.36c0-2.76-2.24-5-5-5h-30.63ZM221.07,51.47c-2.76,0-5,2.24-5,5v143.01c0,2.76,2.24,5,5,5h30.63c2.76,0,5-2.24,5-5V56.47c0-2.76-2.24-5-5-5h-30.63ZM246.7,61.47h-20.63v133.01h20.63V61.47h0ZM145.67,100.12h-20.63v94.36h20.63v-94.36h0ZM120.04,90.12c-2.76,0-5,2.24-5,5v104.36c0,2.76,2.24,5,5,5h30.63c2.76,0,5-2.24,5-5v-104.36c0-2.76-2.24-5-5-5h-30.63ZM196.18,127.54h-20.63v66.94h20.63v-66.94h0ZM170.55,117.54c-2.76,0-5,2.24-5,5v76.94c0,2.76,2.24,5,5,5h30.63c2.76,0,5-2.24,5-5v-76.94c0-2.76-2.24-5-5-5h-30.63ZM244.81,264.06h-117.89l-.26,3.57c-2.01,27.74-3.37,46.53-35.02,52.37h188.46c-31.65-5.83-33.01-24.63-35.02-52.37l-.26-3.57h0ZM349.15,11.53c-2.37-.99-4.99-1.53-7.75-1.53H30.33c-2.76,0-5.37.55-7.75,1.53-2.47,1.03-4.71,2.55-6.61,4.44s-3.41,4.14-4.44,6.61c-.99,2.38-1.53,4.99-1.53,7.75v203.41c0,2.75.55,5.37,1.53,7.75,1.03,2.47,2.55,4.72,4.44,6.61,1.89,1.89,4.14,3.41,6.61,4.44,2.37.99,4.99,1.53,7.75,1.53h311.08c2.75,0,5.37-.55,7.74-1.53,2.47-1.03,4.72-2.55,6.61-4.44,1.89-1.89,3.41-4.14,4.44-6.61.99-2.37,1.53-4.99,1.53-7.74V30.33c0-2.75-.55-5.37-1.53-7.75-1.03-2.47-2.55-4.72-4.44-6.61-1.89-1.89-4.14-3.41-6.61-4.44h0ZM337.86,33.88H33.88v196.31h303.98V33.88h0ZM30.33,23.88c-.9,0-1.77.2-2.6.57-.76.34-1.4.8-1.94,1.34-.54.54-1,1.18-1.34,1.94l-.08.19c-.32.76-.48,1.56-.48,2.4v203.41c0,.93.2,1.79.57,2.6l.17.34c.32.61.72,1.14,1.17,1.6.53.53,1.16.98,1.9,1.33l.51.2c.68.25,1.39.39,2.13.39h311.08c.88,0,1.73-.19,2.52-.54.81-.36,1.47-.83,2.02-1.37.16-.16.31-.33.44-.51.35-.42.65-.89.88-1.4.38-.82.59-1.69.59-2.64V30.33c0-.93-.21-1.82-.59-2.64l-.23-.44c-.31-.56-.68-1.04-1.09-1.46-.53-.53-1.16-.98-1.9-1.32-.83-.38-1.71-.59-2.64-.59H30.33Z"/>
    </g>
  </g>
</svg>