<?xml version="1.0" encoding="UTF-8"?>
<svg id="_레이어_2" data-name="레이어_2" xmlns="http://www.w3.org/2000/svg" viewBox="0 0 298.38 361.99">
  <defs>
    <style>
      .cls-1 {
        fill: #3a525e;
      }

      .cls-1, .cls-2, .cls-3, .cls-4 {
        fill-rule: evenodd;
      }

      .cls-2 {
        fill: #f0c95d;
      }

      .cls-3 {
        fill: #e4e9f3;
      }

      .cls-4 {
        fill: #e15b58;
      }
    </style>
  </defs>
  <g id="Layer_1">
    <g>
      <g>
        <polygon class="cls-4" points="224.65 207.79 156.84 252.33 201.27 357 224.26 309.02 274.75 325.81 224.65 207.79"/>
        <polygon class="cls-4" points="73.73 207.79 141.53 252.33 97.1 357 74.11 309.02 23.63 325.81 73.73 207.79"/>
        <path class="cls-2" d="M173.56,18.39l3.27,5.15c7.12,11.2,20.43,16.05,33.08,12.04l5.81-1.84c9.7-3.07,19.48-1.13,27.27,5.41,7.79,6.54,11.4,15.84,10.06,25.92l-.8,6.05c-1.75,13.16,5.33,25.42,17.6,30.49l5.64,2.33c9.4,3.88,15.65,11.65,17.42,21.67,1.77,10.02-1.45,19.46-8.95,26.32l-4.5,4.12c-9.8,8.96-12.26,22.9-6.11,34.67l2.82,5.41c4.71,9.02,4.5,18.99-.59,27.8-5.09,8.81-13.62,13.98-23.78,14.41l-6.09.26c-13.26.56-24.11,9.67-26.97,22.63l-1.31,5.96c-2.19,9.93-8.76,17.44-18.32,20.91-9.56,3.48-19.41,1.95-27.48-4.25l-4.83-3.72c-10.52-8.09-24.68-8.1-35.21,0l-4.83,3.72c-8.06,6.2-17.92,7.72-27.48,4.25-9.56-3.48-16.13-10.98-18.32-20.91l-1.31-5.96c-2.86-12.96-13.71-22.07-26.97-22.63l-6.09-.26c-10.16-.43-18.69-5.6-23.78-14.41-5.09-8.81-5.3-18.78-.59-27.8l2.82-5.41c6.14-11.77,3.69-25.71-6.11-34.67l-4.5-4.12c-7.51-6.86-10.72-16.3-8.95-26.32,1.77-10.02,8.01-17.79,17.42-21.67l5.64-2.33c12.27-5.07,19.35-17.33,17.6-30.49l-.8-6.05c-1.34-10.08,2.27-19.38,10.06-25.92,7.79-6.54,17.58-8.48,27.27-5.41l5.81,1.84c12.66,4.01,25.96-.83,33.08-12.04l3.27-5.15c5.45-8.59,14.19-13.39,24.37-13.39s18.91,4.8,24.37,13.39Z"/>
        <path class="cls-3" d="M149.19,227.25c43.95,0,79.8-35.85,79.8-79.8s-35.85-79.8-79.8-79.8-79.8,35.85-79.8,79.8,35.85,79.8,79.8,79.8Z"/>
      </g>
      <path class="cls-1" d="M132.93,285.35l-31.24,73.6c-1.08,2.53-4.01,3.71-6.54,2.64-1.26-.54-2.18-1.53-2.66-2.7l-20.96-43.76-46.33,15.41c-2.61.86-5.43-.55-6.29-3.16-.4-1.2-.31-2.44.15-3.51l34.07-80.28-.63-.04-6.09-.26c-5.93-.25-11.42-1.9-16.18-4.78-4.76-2.89-8.76-6.98-11.72-12.1-2.97-5.14-4.51-10.65-4.63-16.22-.12-5.55,1.2-11.12,3.94-16.38l2.82-5.41c2.54-4.87,3.3-10.19,2.41-15.23-.89-5.03-3.42-9.76-7.47-13.47l-4.5-4.12c-4.39-4.02-7.54-8.8-9.32-14.05-1.79-5.27-2.22-10.97-1.19-16.8,1.03-5.84,3.39-11.06,6.88-15.4,3.48-4.33,8.06-7.75,13.56-10.02l5.64-2.33c5.08-2.1,9.09-5.68,11.64-10.1l.14-.23c2.44-4.36,3.49-9.53,2.78-14.9l-.8-6.05c-.78-5.88-.11-11.55,1.9-16.73,2.02-5.2,5.36-9.85,9.9-13.66,4.55-3.82,9.71-6.3,15.17-7.38,5.45-1.08,11.16-.76,16.81,1.03l5.82,1.84c5.26,1.67,10.64,1.5,15.41-.24,4.77-1.73,8.99-5.06,11.95-9.71l3.27-5.15c3.18-5.01,7.35-8.93,12.23-11.61,4.88-2.68,10.43-4.1,16.35-4.1s11.47,1.42,16.35,4.1c4.88,2.68,9.05,6.6,12.23,11.61l3.27,5.15c2.96,4.65,7.18,7.98,11.95,9.71,4.78,1.74,10.15,1.9,15.41.24l5.81-1.84c5.65-1.79,11.36-2.11,16.81-1.04,5.46,1.08,10.62,3.56,15.17,7.38,4.54,3.81,7.88,8.47,9.9,13.66,2.01,5.18,2.68,10.85,1.9,16.73l-.8,6.05c-.72,5.46.37,10.72,2.92,15.13l.14.26c2.55,4.29,6.5,7.78,11.5,9.84l5.64,2.33c5.5,2.27,10.08,5.69,13.56,10.02,3.49,4.34,5.85,9.56,6.88,15.4,1.03,5.84.6,11.54-1.19,16.8-1.79,5.25-4.93,10.03-9.32,14.05l-4.5,4.12c-4.05,3.7-6.59,8.44-7.47,13.47-.89,5.03-.13,10.36,2.41,15.22l2.82,5.41c2.75,5.26,4.06,10.83,3.94,16.38-.12,5.57-1.67,11.08-4.63,16.22-2.96,5.13-6.96,9.22-11.72,12.1-4.76,2.88-10.24,4.53-16.18,4.78l-6.09.26c-.21,0-.43.02-.64.04l34.08,80.28c.45,1.08.53,2.32.14,3.52-.86,2.61-3.68,4.03-6.29,3.16l-46.33-15.41-20.96,43.76c-.48,1.17-1.4,2.17-2.66,2.7-2.53,1.08-5.46-.1-6.54-2.64l-31.24-73.6-1.7-1.31c-4.35-3.34-9.45-5.02-14.56-5.02s-10.21,1.67-14.56,5.02l-1.7,1.31h0ZM101.96,148.29l31.39,34.96c1.84,2.05,5,2.21,7.05.37.23-.21.43-.43.62-.66l55.48-64.73c1.79-2.09,1.54-5.24-.55-7.03-2.09-1.79-5.24-1.55-7.03.55l-51.94,60.6-27.6-30.73c-1.84-2.05-5-2.21-7.05-.37-2.05,1.84-2.21,5-.37,7.05h0ZM149.19,62.65c-23.42,0-44.62,9.49-59.96,24.84-15.35,15.35-24.84,36.55-24.84,59.96s9.49,44.62,24.84,59.96c15.35,15.35,36.55,24.84,59.96,24.84s44.62-9.49,59.96-24.84c15.35-15.35,24.84-36.55,24.84-59.96s-9.49-44.62-24.84-59.96c-15.35-15.35-36.55-24.84-59.96-24.84h0ZM202.08,94.55c-13.54-13.54-32.24-21.91-52.89-21.91s-39.36,8.37-52.89,21.91c-13.54,13.54-21.91,32.24-21.91,52.89s8.37,39.36,21.91,52.89c13.54,13.54,32.24,21.91,52.89,21.91s39.36-8.37,52.89-21.91c13.54-13.54,21.91-32.24,21.91-52.89s-8.37-39.36-21.91-52.89h0ZM62.79,246.32l-30.26,71.28,39.92-13.28c2.37-.84,5.04.23,6.15,2.55l18.22,38.02,21.8-51.36c-1.41.42-2.84.74-4.29.96-5.5.85-11.19.28-16.76-1.74-5.58-2.03-10.31-5.26-13.97-9.44-3.66-4.18-6.23-9.28-7.51-15.09l-1.31-5.96c-1.18-5.37-4.02-9.93-7.92-13.21-1.25-1.05-2.61-1.97-4.07-2.74h0ZM235.58,246.32c-1.45.77-2.81,1.69-4.07,2.74-3.91,3.28-6.74,7.84-7.92,13.21l-1.31,5.96c-1.28,5.8-3.85,10.91-7.51,15.09-3.67,4.18-8.39,7.41-13.97,9.44-5.57,2.03-11.26,2.59-16.76,1.74-1.45-.22-2.88-.55-4.29-.96l21.8,51.36,18.22-38.02c1.11-2.32,3.78-3.39,6.15-2.55l39.92,13.28-30.26-71.28h0ZM172.61,26.21l-3.27-5.15c-2.27-3.57-5.2-6.35-8.6-8.21-3.39-1.86-7.31-2.85-11.55-2.85s-8.16.99-11.55,2.85c-3.4,1.87-6.33,4.64-8.6,8.21l-3.27,5.15c-4.16,6.55-10.16,11.26-16.99,13.74-6.82,2.48-14.43,2.74-21.82.39l-5.82-1.84c-4.04-1.28-8.07-1.52-11.89-.76-3.8.75-7.43,2.51-10.68,5.23-3.25,2.72-5.61,5.99-7.01,9.6-1.41,3.63-1.87,7.65-1.31,11.85l.8,6.05c1.01,7.57-.5,14.9-4,21.12l-.16.31c-3.62,6.27-9.29,11.35-16.48,14.32l-5.64,2.33c-3.9,1.61-7.14,4.02-9.58,7.05-2.42,3.02-4.07,6.7-4.81,10.87-.74,4.18-.44,8.21.8,11.88,1.26,3.69,3.47,7.06,6.59,9.91l4.5,4.12c5.75,5.25,9.34,11.97,10.6,19.09,1.25,7.12.17,14.65-3.43,21.55l-2.82,5.41c-1.96,3.75-2.89,7.68-2.81,11.58.08,3.87,1.19,7.75,3.3,11.42,2.12,3.68,4.94,6.58,8.25,8.59,3.32,2.01,7.18,3.16,11.41,3.34l6.09.26c7.78.33,14.85,3.16,20.39,7.81,5.55,4.65,9.57,11.12,11.24,18.72l1.31,5.96c.91,4.13,2.72,7.74,5.28,10.67,2.56,2.92,5.9,5.19,9.87,6.63,3.98,1.45,8.01,1.86,11.84,1.27,3.83-.59,7.54-2.2,10.89-4.78l4.83-3.72c6.17-4.75,13.42-7.13,20.65-7.13s14.47,2.38,20.65,7.13l4.83,3.72c3.35,2.58,7.06,4.18,10.89,4.78,3.83.59,7.85.18,11.84-1.27,3.97-1.45,7.32-3.71,9.87-6.63,2.56-2.93,4.37-6.54,5.28-10.67l1.31-5.96c1.67-7.59,5.69-14.07,11.24-18.72,5.54-4.65,12.61-7.49,20.39-7.82l6.09-.26c4.23-.18,8.09-1.33,11.41-3.34,3.31-2.01,6.12-4.91,8.25-8.59,2.12-3.67,3.22-7.55,3.3-11.42.08-3.89-.85-7.82-2.81-11.57l-2.82-5.41c-3.6-6.9-4.68-14.44-3.43-21.55,1.26-7.12,4.85-13.84,10.6-19.09l4.5-4.12c3.11-2.84,5.33-6.22,6.59-9.91,1.25-3.67,1.54-7.7.8-11.88-.74-4.17-2.38-7.86-4.81-10.87-2.44-3.03-5.68-5.44-9.58-7.05l-5.64-2.33c-7.06-2.91-12.67-7.89-16.3-14.03l-.18-.28c-3.62-6.28-5.19-13.73-4.17-21.42l.8-6.05c.56-4.2.09-8.22-1.31-11.85-1.4-3.61-3.76-6.88-7.01-9.6-3.24-2.72-6.87-4.48-10.68-5.23-3.81-.75-7.85-.51-11.89.76l-5.81,1.84c-7.39,2.34-15,2.09-21.82-.39-6.82-2.48-12.82-7.19-16.98-13.74Z"/>
    </g>
  </g>
</svg>